<svg xmlns="http://www.w3.org/2000/svg" xmlns:xlink="http://www.w3.org/1999/xlink" width="1366" zoomAndPan="magnify" viewBox="0 0 1024.5 576" height="768" preserveAspectRatio="xMidYMid meet" version="1.0"><defs><clipPath id="9dfeb75f49"><path d="M 0 0.140625 L 1024 0.140625 L 1024 575.859375 L 0 575.859375 Z M 0 0.140625 " clip-rule="nonzero"/></clipPath><clipPath id="2a133d98e1"><path d="M 78 320 L 105 320 L 105 347 L 78 347 Z M 78 320 " clip-rule="nonzero"/></clipPath><clipPath id="46274381ed"><path d="M 23.664062 291.691406 L 173.375 124.734375 L 290.636719 229.882812 L 140.925781 396.839844 Z M 23.664062 291.691406 " clip-rule="nonzero"/></clipPath><clipPath id="cc9392423b"><path d="M 23.664062 291.691406 L 173.375 124.734375 L 290.636719 229.882812 L 140.925781 396.839844 Z M 23.664062 291.691406 " clip-rule="nonzero"/></clipPath><clipPath id="1504388a9d"><path d="M 213 266 L 240 266 L 240 294 L 213 294 Z M 213 266 " clip-rule="nonzero"/></clipPath><clipPath id="d2e592ef52"><path d="M 23.664062 291.691406 L 173.375 124.734375 L 290.636719 229.882812 L 140.925781 396.839844 Z M 23.664062 291.691406 " clip-rule="nonzero"/></clipPath><clipPath id="725c2d103d"><path d="M 23.664062 291.691406 L 173.375 124.734375 L 290.636719 229.882812 L 140.925781 396.839844 Z M 23.664062 291.691406 " clip-rule="nonzero"/></clipPath><clipPath id="298c122313"><path d="M 161 131 L 188 131 L 188 158 L 161 158 Z M 161 131 " clip-rule="nonzero"/></clipPath><clipPath id="8251f44a3c"><path d="M 23.664062 291.691406 L 173.375 124.734375 L 290.636719 229.882812 L 140.925781 396.839844 Z M 23.664062 291.691406 " clip-rule="nonzero"/></clipPath><clipPath id="72a8332062"><path d="M 23.664062 291.691406 L 173.375 124.734375 L 290.636719 229.882812 L 140.925781 396.839844 Z M 23.664062 291.691406 " clip-rule="nonzero"/></clipPath><clipPath id="239f20ac5b"><path d="M 100 153 L 193 153 L 193 333 L 100 333 Z M 100 153 " clip-rule="nonzero"/></clipPath><clipPath id="bfeb17340a"><path d="M 23.664062 291.691406 L 173.375 124.734375 L 290.636719 229.882812 L 140.925781 396.839844 Z M 23.664062 291.691406 " clip-rule="nonzero"/></clipPath><clipPath id="9cf33b4649"><path d="M 23.664062 291.691406 L 173.375 124.734375 L 290.636719 229.882812 L 140.925781 396.839844 Z M 23.664062 291.691406 " clip-rule="nonzero"/></clipPath><clipPath id="273d0a4a88"><path d="M 124 284 L 218 284 L 218 350 L 124 350 Z M 124 284 " clip-rule="nonzero"/></clipPath><clipPath id="ac865dfd19"><path d="M 23.664062 291.691406 L 173.375 124.734375 L 290.636719 229.882812 L 140.925781 396.839844 Z M 23.664062 291.691406 " clip-rule="nonzero"/></clipPath><clipPath id="85f932febd"><path d="M 23.664062 291.691406 L 173.375 124.734375 L 290.636719 229.882812 L 140.925781 396.839844 Z M 23.664062 291.691406 " clip-rule="nonzero"/></clipPath><clipPath id="c6bd51faf6"><path d="M 166 275 L 198 275 L 198 299 L 166 299 Z M 166 275 " clip-rule="nonzero"/></clipPath><clipPath id="22f6894a32"><path d="M 23.664062 291.691406 L 173.375 124.734375 L 290.636719 229.882812 L 140.925781 396.839844 Z M 23.664062 291.691406 " clip-rule="nonzero"/></clipPath><clipPath id="ec4bf6b58f"><path d="M 23.664062 291.691406 L 173.375 124.734375 L 290.636719 229.882812 L 140.925781 396.839844 Z M 23.664062 291.691406 " clip-rule="nonzero"/></clipPath><clipPath id="8ef530f8cb"><path d="M 181 237 L 227 237 L 227 269 L 181 269 Z M 181 237 " clip-rule="nonzero"/></clipPath><clipPath id="c146de4981"><path d="M 23.664062 291.691406 L 173.375 124.734375 L 290.636719 229.882812 L 140.925781 396.839844 Z M 23.664062 291.691406 " clip-rule="nonzero"/></clipPath><clipPath id="09fb976cb9"><path d="M 23.664062 291.691406 L 173.375 124.734375 L 290.636719 229.882812 L 140.925781 396.839844 Z M 23.664062 291.691406 " clip-rule="nonzero"/></clipPath><clipPath id="211221cac7"><path d="M 125 252 L 145 252 L 145 271 L 125 271 Z M 125 252 " clip-rule="nonzero"/></clipPath><clipPath id="50e76953a4"><path d="M 172.058594 303.304688 L 38.929688 384.621094 L -18.539062 290.53125 L 114.589844 209.214844 Z M 172.058594 303.304688 " clip-rule="nonzero"/></clipPath><clipPath id="235b913f23"><path d="M 172.058594 303.304688 L 38.929688 384.621094 L -18.539062 290.53125 L 114.589844 209.214844 Z M 172.058594 303.304688 " clip-rule="nonzero"/></clipPath><clipPath id="59a70247cf"><path d="M 24 260 L 44 260 L 44 280 L 24 280 Z M 24 260 " clip-rule="nonzero"/></clipPath><clipPath id="2b8d73713c"><path d="M 172.058594 303.304688 L 38.929688 384.621094 L -18.539062 290.53125 L 114.589844 209.214844 Z M 172.058594 303.304688 " clip-rule="nonzero"/></clipPath><clipPath id="08d98cee2e"><path d="M 172.058594 303.304688 L 38.929688 384.621094 L -18.539062 290.53125 L 114.589844 209.214844 Z M 172.058594 303.304688 " clip-rule="nonzero"/></clipPath><clipPath id="9be7fc75e9"><path d="M 32 362 L 52 362 L 52 381 L 32 381 Z M 32 362 " clip-rule="nonzero"/></clipPath><clipPath id="96c54156cf"><path d="M 172.058594 303.304688 L 38.929688 384.621094 L -18.539062 290.53125 L 114.589844 209.214844 Z M 172.058594 303.304688 " clip-rule="nonzero"/></clipPath><clipPath id="1614b39100"><path d="M 172.058594 303.304688 L 38.929688 384.621094 L -18.539062 290.53125 L 114.589844 209.214844 Z M 172.058594 303.304688 " clip-rule="nonzero"/></clipPath><clipPath id="a04e890840"><path d="M 36 260 L 129 260 L 129 364 L 36 364 Z M 36 260 " clip-rule="nonzero"/></clipPath><clipPath id="caeaf663b6"><path d="M 172.058594 303.304688 L 38.929688 384.621094 L -18.539062 290.53125 L 114.589844 209.214844 Z M 172.058594 303.304688 " clip-rule="nonzero"/></clipPath><clipPath id="bc7940c77b"><path d="M 172.058594 303.304688 L 38.929688 384.621094 L -18.539062 290.53125 L 114.589844 209.214844 Z M 172.058594 303.304688 " clip-rule="nonzero"/></clipPath><clipPath id="eda51270d7"><path d="M 41 238 L 112 238 L 112 270 L 41 270 Z M 41 238 " clip-rule="nonzero"/></clipPath><clipPath id="7f51e48ac1"><path d="M 172.058594 303.304688 L 38.929688 384.621094 L -18.539062 290.53125 L 114.589844 209.214844 Z M 172.058594 303.304688 " clip-rule="nonzero"/></clipPath><clipPath id="ff3f54cddc"><path d="M 172.058594 303.304688 L 38.929688 384.621094 L -18.539062 290.53125 L 114.589844 209.214844 Z M 172.058594 303.304688 " clip-rule="nonzero"/></clipPath><clipPath id="c8133fd8f2"><path d="M 57 263 L 74 263 L 74 285 L 57 285 Z M 57 263 " clip-rule="nonzero"/></clipPath><clipPath id="460f75a655"><path d="M 172.058594 303.304688 L 38.929688 384.621094 L -18.539062 290.53125 L 114.589844 209.214844 Z M 172.058594 303.304688 " clip-rule="nonzero"/></clipPath><clipPath id="ae146f7555"><path d="M 172.058594 303.304688 L 38.929688 384.621094 L -18.539062 290.53125 L 114.589844 209.214844 Z M 172.058594 303.304688 " clip-rule="nonzero"/></clipPath><clipPath id="2e6144352f"><path d="M 29 277 L 57 277 L 57 308 L 29 308 Z M 29 277 " clip-rule="nonzero"/></clipPath><clipPath id="e8a1287858"><path d="M 172.058594 303.304688 L 38.929688 384.621094 L -18.539062 290.53125 L 114.589844 209.214844 Z M 172.058594 303.304688 " clip-rule="nonzero"/></clipPath><clipPath id="2ad554489f"><path d="M 172.058594 303.304688 L 38.929688 384.621094 L -18.539062 290.53125 L 114.589844 209.214844 Z M 172.058594 303.304688 " clip-rule="nonzero"/></clipPath><clipPath id="c9741721f7"><path d="M 127 204 L 148 204 L 148 224 L 127 224 Z M 127 204 " clip-rule="nonzero"/></clipPath><clipPath id="98cdaf6033"><path d="M 237.917969 77.59375 L 191.339844 240.566406 L 76.679688 207.796875 L 123.261719 44.824219 Z M 237.917969 77.59375 " clip-rule="nonzero"/></clipPath><clipPath id="8fede000c2"><path d="M 191.355469 240.511719 L 237.933594 77.539062 L 123.277344 44.765625 L 76.695312 207.738281 Z M 191.355469 240.511719 " clip-rule="nonzero"/></clipPath><clipPath id="55a05315ab"><path d="M 106 95 L 127 95 L 127 116 L 106 116 Z M 106 95 " clip-rule="nonzero"/></clipPath><clipPath id="1cea42c91e"><path d="M 237.917969 77.59375 L 191.339844 240.566406 L 76.679688 207.796875 L 123.261719 44.824219 Z M 237.917969 77.59375 " clip-rule="nonzero"/></clipPath><clipPath id="a26f1570e2"><path d="M 191.355469 240.511719 L 237.933594 77.539062 L 123.277344 44.765625 L 76.695312 207.738281 Z M 191.355469 240.511719 " clip-rule="nonzero"/></clipPath><clipPath id="c602c1e3ff"><path d="M 214 74 L 235 74 L 235 95 L 214 95 Z M 214 74 " clip-rule="nonzero"/></clipPath><clipPath id="ba9698f213"><path d="M 237.917969 77.59375 L 191.339844 240.566406 L 76.679688 207.796875 L 123.261719 44.824219 Z M 237.917969 77.59375 " clip-rule="nonzero"/></clipPath><clipPath id="c584f06a35"><path d="M 191.355469 240.511719 L 237.933594 77.539062 L 123.277344 44.765625 L 76.695312 207.738281 Z M 191.355469 240.511719 " clip-rule="nonzero"/></clipPath><clipPath id="47e3a1a9c5"><path d="M 128 82 L 217 82 L 217 208 L 128 208 Z M 128 82 " clip-rule="nonzero"/></clipPath><clipPath id="5c14b865a2"><path d="M 237.917969 77.59375 L 191.339844 240.566406 L 76.679688 207.796875 L 123.261719 44.824219 Z M 237.917969 77.59375 " clip-rule="nonzero"/></clipPath><clipPath id="ee0f7a7704"><path d="M 191.355469 240.511719 L 237.933594 77.539062 L 123.277344 44.765625 L 76.695312 207.738281 Z M 191.355469 240.511719 " clip-rule="nonzero"/></clipPath><clipPath id="4b2d5b7c63"><path d="M 94 114 L 131 114 L 131 190 L 94 190 Z M 94 114 " clip-rule="nonzero"/></clipPath><clipPath id="a33a47c476"><path d="M 237.917969 77.59375 L 191.339844 240.566406 L 76.679688 207.796875 L 123.261719 44.824219 Z M 237.917969 77.59375 " clip-rule="nonzero"/></clipPath><clipPath id="c72d04ad13"><path d="M 191.355469 240.511719 L 237.933594 77.539062 L 123.277344 44.765625 L 76.695312 207.738281 Z M 191.355469 240.511719 " clip-rule="nonzero"/></clipPath><clipPath id="b06341e028"><path d="M 117 131 L 144 131 L 144 144 L 117 144 Z M 117 131 " clip-rule="nonzero"/></clipPath><clipPath id="818ba7c434"><path d="M 237.917969 77.59375 L 191.339844 240.566406 L 76.679688 207.796875 L 123.261719 44.824219 Z M 237.917969 77.59375 " clip-rule="nonzero"/></clipPath><clipPath id="ef52863fac"><path d="M 191.355469 240.511719 L 237.933594 77.539062 L 123.277344 44.765625 L 76.695312 207.738281 Z M 191.355469 240.511719 " clip-rule="nonzero"/></clipPath><clipPath id="88459c3514"><path d="M 124 93 L 162 93 L 162 119 L 124 119 Z M 124 93 " clip-rule="nonzero"/></clipPath><clipPath id="2349c03b94"><path d="M 237.917969 77.59375 L 191.339844 240.566406 L 76.679688 207.796875 L 123.261719 44.824219 Z M 237.917969 77.59375 " clip-rule="nonzero"/></clipPath><clipPath id="e16ed30a6f"><path d="M 191.355469 240.511719 L 237.933594 77.539062 L 123.277344 44.765625 L 76.695312 207.738281 Z M 191.355469 240.511719 " clip-rule="nonzero"/></clipPath><clipPath id="f9231cea2e"><path d="M 151 40 L 176 40 L 176 65 L 151 65 Z M 151 40 " clip-rule="nonzero"/></clipPath><clipPath id="02f52e2108"><path d="M 210.09375 108.214844 L 33.789062 209.351562 L -37.488281 85.09375 L 138.8125 -16.042969 Z M 210.09375 108.214844 " clip-rule="nonzero"/></clipPath><clipPath id="a98eebbe53"><path d="M 210.09375 108.214844 L 33.789062 209.351562 L -37.488281 85.09375 L 138.8125 -16.042969 Z M 210.09375 108.214844 " clip-rule="nonzero"/></clipPath><clipPath id="960c0f25e2"><path d="M 19 48 L 44 48 L 44 73 L 19 73 Z M 19 48 " clip-rule="nonzero"/></clipPath><clipPath id="5272c99f7d"><path d="M 210.09375 108.214844 L 33.789062 209.351562 L -37.488281 85.09375 L 138.8125 -16.042969 Z M 210.09375 108.214844 " clip-rule="nonzero"/></clipPath><clipPath id="246abba61c"><path d="M 210.09375 108.214844 L 33.789062 209.351562 L -37.488281 85.09375 L 138.8125 -16.042969 Z M 210.09375 108.214844 " clip-rule="nonzero"/></clipPath><clipPath id="c1e731b72d"><path d="M 26 180 L 51 180 L 51 205 L 26 205 Z M 26 180 " clip-rule="nonzero"/></clipPath><clipPath id="2c2fc13c47"><path d="M 210.09375 108.214844 L 33.789062 209.351562 L -37.488281 85.09375 L 138.8125 -16.042969 Z M 210.09375 108.214844 " clip-rule="nonzero"/></clipPath><clipPath id="6d8fa218dd"><path d="M 210.09375 108.214844 L 33.789062 209.351562 L -37.488281 85.09375 L 138.8125 -16.042969 Z M 210.09375 108.214844 " clip-rule="nonzero"/></clipPath><clipPath id="b145099b38"><path d="M 31 50 L 155 50 L 155 183 L 31 183 Z M 31 50 " clip-rule="nonzero"/></clipPath><clipPath id="ebd00daf3f"><path d="M 210.09375 108.214844 L 33.789062 209.351562 L -37.488281 85.09375 L 138.8125 -16.042969 Z M 210.09375 108.214844 " clip-rule="nonzero"/></clipPath><clipPath id="44be396b2e"><path d="M 210.09375 108.214844 L 33.789062 209.351562 L -37.488281 85.09375 L 138.8125 -16.042969 Z M 210.09375 108.214844 " clip-rule="nonzero"/></clipPath><clipPath id="50db287019"><path d="M 41 21 L 133 21 L 133 60 L 41 60 Z M 41 21 " clip-rule="nonzero"/></clipPath><clipPath id="9a97ff6369"><path d="M 210.09375 108.214844 L 33.789062 209.351562 L -37.488281 85.09375 L 138.8125 -16.042969 Z M 210.09375 108.214844 " clip-rule="nonzero"/></clipPath><clipPath id="3ff454ce68"><path d="M 210.09375 108.214844 L 33.789062 209.351562 L -37.488281 85.09375 L 138.8125 -16.042969 Z M 210.09375 108.214844 " clip-rule="nonzero"/></clipPath><clipPath id="92098933f5"><path d="M 61 53 L 83 53 L 83 81 L 61 81 Z M 61 53 " clip-rule="nonzero"/></clipPath><clipPath id="7af9197284"><path d="M 210.09375 108.214844 L 33.789062 209.351562 L -37.488281 85.09375 L 138.8125 -16.042969 Z M 210.09375 108.214844 " clip-rule="nonzero"/></clipPath><clipPath id="e47f42758d"><path d="M 210.09375 108.214844 L 33.789062 209.351562 L -37.488281 85.09375 L 138.8125 -16.042969 Z M 210.09375 108.214844 " clip-rule="nonzero"/></clipPath><clipPath id="0721293ab3"><path d="M 25 70 L 60 70 L 60 110 L 25 110 Z M 25 70 " clip-rule="nonzero"/></clipPath><clipPath id="e78162aa41"><path d="M 210.09375 108.214844 L 33.789062 209.351562 L -37.488281 85.09375 L 138.8125 -16.042969 Z M 210.09375 108.214844 " clip-rule="nonzero"/></clipPath><clipPath id="803f32f741"><path d="M 210.09375 108.214844 L 33.789062 209.351562 L -37.488281 85.09375 L 138.8125 -16.042969 Z M 210.09375 108.214844 " clip-rule="nonzero"/></clipPath><clipPath id="d96396a525"><path d="M 88 374 L 107 374 L 107 393 L 88 393 Z M 88 374 " clip-rule="nonzero"/></clipPath><clipPath id="b30e1e505d"><path d="M 88.671875 328.089844 L 244.632812 331.492188 L 242.226562 441.714844 L 86.265625 438.3125 Z M 88.671875 328.089844 " clip-rule="nonzero"/></clipPath><clipPath id="eec6179359"><path d="M 88.671875 328.089844 L 244.632812 331.492188 L 242.226562 441.714844 L 86.265625 438.3125 Z M 88.671875 328.089844 " clip-rule="nonzero"/></clipPath><clipPath id="1ba75d93f8"><path d="M 177 421 L 196 421 L 196 440 L 177 440 Z M 177 421 " clip-rule="nonzero"/></clipPath><clipPath id="339352d328"><path d="M 88.671875 328.089844 L 244.632812 331.492188 L 242.226562 441.714844 L 86.265625 438.3125 Z M 88.671875 328.089844 " clip-rule="nonzero"/></clipPath><clipPath id="4d1b82af0a"><path d="M 88.671875 328.089844 L 244.632812 331.492188 L 242.226562 441.714844 L 86.265625 438.3125 Z M 88.671875 328.089844 " clip-rule="nonzero"/></clipPath><clipPath id="567c4af301"><path d="M 225 331 L 244 331 L 244 351 L 225 351 Z M 225 331 " clip-rule="nonzero"/></clipPath><clipPath id="db5017e463"><path d="M 88.671875 328.089844 L 244.632812 331.492188 L 242.226562 441.714844 L 86.265625 438.3125 Z M 88.671875 328.089844 " clip-rule="nonzero"/></clipPath><clipPath id="577a172def"><path d="M 88.671875 328.089844 L 244.632812 331.492188 L 242.226562 441.714844 L 86.265625 438.3125 Z M 88.671875 328.089844 " clip-rule="nonzero"/></clipPath><clipPath id="1dcf9d99f0"><path d="M 102 348 L 234 348 L 234 399 L 102 399 Z M 102 348 " clip-rule="nonzero"/></clipPath><clipPath id="8bc43db944"><path d="M 88.671875 328.089844 L 244.632812 331.492188 L 242.226562 441.714844 L 86.265625 438.3125 Z M 88.671875 328.089844 " clip-rule="nonzero"/></clipPath><clipPath id="589da17606"><path d="M 88.671875 328.089844 L 244.632812 331.492188 L 242.226562 441.714844 L 86.265625 438.3125 Z M 88.671875 328.089844 " clip-rule="nonzero"/></clipPath><clipPath id="6df201add7"><path d="M 116 395 L 180 395 L 180 438 L 116 438 Z M 116 395 " clip-rule="nonzero"/></clipPath><clipPath id="cef8e8c424"><path d="M 88.671875 328.089844 L 244.632812 331.492188 L 242.226562 441.714844 L 86.265625 438.3125 Z M 88.671875 328.089844 " clip-rule="nonzero"/></clipPath><clipPath id="596ec4f514"><path d="M 88.671875 328.089844 L 244.632812 331.492188 L 242.226562 441.714844 L 86.265625 438.3125 Z M 88.671875 328.089844 " clip-rule="nonzero"/></clipPath><clipPath id="55e7441594"><path d="M 160 397 L 166 397 L 166 423 L 160 423 Z M 160 397 " clip-rule="nonzero"/></clipPath><clipPath id="c556c9cba0"><path d="M 88.671875 328.089844 L 244.632812 331.492188 L 242.226562 441.714844 L 86.265625 438.3125 Z M 88.671875 328.089844 " clip-rule="nonzero"/></clipPath><clipPath id="d5438724d8"><path d="M 88.671875 328.089844 L 244.632812 331.492188 L 242.226562 441.714844 L 86.265625 438.3125 Z M 88.671875 328.089844 " clip-rule="nonzero"/></clipPath><clipPath id="0b7d331a8a"><path d="M 187 387 L 205 387 L 205 425 L 187 425 Z M 187 387 " clip-rule="nonzero"/></clipPath><clipPath id="5b147a96ca"><path d="M 88.671875 328.089844 L 244.632812 331.492188 L 242.226562 441.714844 L 86.265625 438.3125 Z M 88.671875 328.089844 " clip-rule="nonzero"/></clipPath><clipPath id="e2f88732e5"><path d="M 88.671875 328.089844 L 244.632812 331.492188 L 242.226562 441.714844 L 86.265625 438.3125 Z M 88.671875 328.089844 " clip-rule="nonzero"/></clipPath><clipPath id="911d7dc622"><path d="M 213 466 L 237.785156 466 L 237.785156 491 L 213 491 Z M 213 466 " clip-rule="nonzero"/></clipPath><clipPath id="b850a780dc"><path d="M 35 407.160156 L 60 407.160156 L 60 432 L 35 432 Z M 35 407.160156 " clip-rule="nonzero"/></clipPath></defs><g clip-path="url(#9dfeb75f49)"><path fill="#ffffff" d="M 0 0.140625 L 1024.5 0.140625 L 1024.5 583.640625 L 0 583.640625 Z M 0 0.140625 " fill-opacity="1" fill-rule="nonzero"/><path fill="#ffffff" d="M 0 0.140625 L 1024.5 0.140625 L 1024.5 576.140625 L 0 576.140625 Z M 0 0.140625 " fill-opacity="1" fill-rule="nonzero"/><path fill="#f2f1ec" d="M 0 0.140625 L 1024.5 0.140625 L 1024.5 576.140625 L 0 576.140625 Z M 0 0.140625 " fill-opacity="1" fill-rule="nonzero"/></g><g clip-path="url(#2a133d98e1)"><g clip-path="url(#46274381ed)"><g clip-path="url(#cc9392423b)"><path fill="#1d4355" d="M 101.359375 324.960938 C 106.175781 330.421875 105.648438 338.761719 100.179688 343.589844 C 94.710938 348.414062 86.371094 347.902344 81.558594 342.441406 C 76.742188 336.980469 77.269531 328.640625 82.742188 323.8125 C 88.210938 318.988281 96.546875 319.5 101.359375 324.960938 M 98.289062 327.671875 C 94.96875 323.90625 89.21875 323.550781 85.445312 326.882812 C 81.671875 330.210938 81.308594 335.964844 84.628906 339.730469 C 87.949219 343.496094 93.699219 343.851562 97.472656 340.519531 C 101.246094 337.191406 101.609375 331.4375 98.289062 327.671875 Z M 98.289062 327.671875 " fill-opacity="0.9961" fill-rule="nonzero"/></g></g></g><g clip-path="url(#1504388a9d)"><g clip-path="url(#d2e592ef52)"><g clip-path="url(#725c2d103d)"><path fill="#1d4355" d="M 236.679688 271.386719 C 241.496094 276.847656 240.964844 285.183594 235.496094 290.011719 C 230.027344 294.839844 221.691406 294.328125 216.875 288.867188 C 212.058594 283.40625 212.589844 275.066406 218.058594 270.238281 C 223.527344 265.410156 231.863281 265.925781 236.679688 271.386719 M 233.609375 274.097656 C 230.285156 270.332031 224.535156 269.976562 220.761719 273.304688 C 216.992188 276.636719 216.625 282.390625 219.949219 286.15625 C 223.269531 289.921875 229.019531 290.277344 232.792969 286.945312 C 236.5625 283.617188 236.929688 277.863281 233.609375 274.097656 Z M 233.609375 274.097656 " fill-opacity="0.9961" fill-rule="nonzero"/></g></g></g><g clip-path="url(#298c122313)"><g clip-path="url(#8251f44a3c)"><g clip-path="url(#72a8332062)"><path fill="#1d4355" d="M 184.355469 135.695312 C 189.167969 141.15625 188.640625 149.496094 183.171875 154.324219 C 177.703125 159.148438 169.363281 158.636719 164.550781 153.175781 C 159.734375 147.714844 160.265625 139.375 165.734375 134.550781 C 171.203125 129.722656 179.539062 130.234375 184.355469 135.695312 M 181.28125 138.40625 C 177.960938 134.640625 172.210938 134.285156 168.4375 137.617188 C 164.664062 140.945312 164.300781 146.699219 167.621094 150.464844 C 170.941406 154.230469 176.695312 154.585938 180.464844 151.253906 C 184.238281 147.925781 184.605469 142.171875 181.28125 138.40625 Z M 181.28125 138.40625 " fill-opacity="0.9961" fill-rule="nonzero"/></g></g></g><g clip-path="url(#239f20ac5b)"><g clip-path="url(#bfeb17340a)"><g clip-path="url(#9cf33b4649)"><path fill="#1d4355" d="M 103.960938 328.777344 L 103.960938 328.78125 L 101.9375 328.367188 L 125.621094 320.289062 L 124.261719 321.878906 L 130.675781 285.097656 C 130.8125 284.320312 131.386719 283.6875 132.148438 283.472656 L 166.824219 273.816406 L 165.488281 274.992188 L 181.136719 238.160156 L 181.113281 239.695312 L 167.515625 204.277344 C 167.265625 203.628906 167.363281 202.894531 167.777344 202.332031 L 188.726562 173.816406 L 188.496094 175.84375 L 180.015625 156.292969 C 179.566406 155.253906 180.042969 154.050781 181.082031 153.597656 C 182.117188 153.148438 183.324219 153.621094 183.773438 154.65625 L 192.25 174.207031 C 192.539062 174.875 192.453125 175.648438 192.023438 176.234375 L 171.074219 204.75 L 171.335938 202.804688 L 184.933594 238.222656 C 185.121094 238.71875 185.113281 239.269531 184.90625 239.757812 L 169.253906 276.585938 C 169.011719 277.160156 168.519531 277.59375 167.917969 277.761719 L 133.238281 287.417969 L 134.707031 285.792969 L 128.296875 322.574219 C 128.167969 323.3125 127.644531 323.921875 126.9375 324.164062 L 103.253906 332.242188 C 102.550781 332.480469 101.777344 332.324219 101.226562 331.832031 L 101.222656 331.828125 C 100.382812 331.074219 100.316406 329.78125 101.070312 328.9375 C 101.824219 328.09375 103.121094 328.023438 103.960938 328.777344 Z M 103.960938 328.777344 " fill-opacity="0.9961" fill-rule="nonzero"/></g></g></g><g clip-path="url(#273d0a4a88)"><g clip-path="url(#ac865dfd19)"><g clip-path="url(#85f932febd)"><path fill="#1d4355" d="M 128.007812 322.144531 L 128.011719 322.144531 L 154.140625 345.617188 L 152.160156 345.1875 L 188.320312 333.8125 L 186.917969 335.394531 L 193.855469 297.828125 C 193.964844 297.234375 194.328125 296.722656 194.851562 296.421875 L 214.761719 284.972656 C 215.742188 284.40625 216.992188 284.742188 217.554688 285.722656 C 218.117188 286.703125 217.777344 287.953125 216.796875 288.519531 L 196.886719 299.96875 L 197.878906 298.5625 L 190.941406 336.132812 C 190.804688 336.878906 190.265625 337.488281 189.539062 337.714844 L 153.378906 349.09375 C 152.691406 349.3125 151.9375 349.148438 151.402344 348.664062 L 125.273438 325.195312 L 125.277344 325.195312 L 125.273438 325.191406 C 124.433594 324.441406 124.363281 323.144531 125.121094 322.304688 C 125.875 321.460938 127.167969 321.390625 128.007812 322.144531 Z M 128.007812 322.144531 " fill-opacity="0.9961" fill-rule="nonzero"/></g></g></g><g clip-path="url(#c6bd51faf6)"><g clip-path="url(#22f6894a32)"><g clip-path="url(#ec4bf6b58f)"><path fill="#1d4355" d="M 170.035156 275.816406 L 170.039062 275.816406 L 169.875 275.6875 L 196.175781 294.8125 C 197.089844 295.476562 197.289062 296.757812 196.625 297.671875 C 195.957031 298.585938 194.675781 298.789062 193.765625 298.125 L 167.464844 279 L 167.300781 278.867188 C 166.460938 278.113281 166.390625 276.816406 167.144531 275.976562 C 167.902344 275.132812 169.195312 275.0625 170.035156 275.816406 Z M 170.035156 275.816406 " fill-opacity="0.9961" fill-rule="nonzero"/></g></g></g><g clip-path="url(#8ef530f8cb)"><g clip-path="url(#c146de4981)"><g clip-path="url(#09fb976cb9)"><path fill="#1d4355" d="M 185.207031 237.835938 L 184.085938 237.332031 L 220.28125 241.601562 C 221.167969 241.707031 221.882812 242.375 222.046875 243.25 L 226.492188 266.5625 C 226.707031 267.675781 225.976562 268.746094 224.867188 268.960938 C 223.757812 269.175781 222.683594 268.449219 222.472656 267.339844 L 218.027344 244.023438 L 219.792969 245.667969 L 183.597656 241.394531 C 183.179688 241.347656 182.785156 241.167969 182.472656 240.886719 C 181.628906 240.132812 181.5625 238.839844 182.316406 237.996094 C 183.070312 237.152344 184.367188 237.082031 185.207031 237.835938 Z M 185.207031 237.835938 " fill-opacity="0.9961" fill-rule="nonzero"/></g></g></g><g clip-path="url(#211221cac7)"><g clip-path="url(#50e76953a4)"><g clip-path="url(#235b913f23)"><path fill="#a6a6a6" d="M 126.757812 265.304688 C 124.625 260.679688 126.632812 255.207031 131.246094 253.089844 C 135.855469 250.96875 141.324219 253 143.457031 257.628906 C 145.589844 262.257812 143.582031 267.726562 138.96875 269.847656 C 134.359375 271.964844 128.890625 269.933594 126.757812 265.304688 M 129.347656 264.113281 L 129.347656 264.117188 C 130.820312 267.308594 134.589844 268.710938 137.769531 267.246094 C 140.953125 265.785156 142.335938 262.011719 140.867188 258.820312 C 139.394531 255.628906 135.625 254.226562 132.441406 255.6875 C 129.261719 257.148438 127.875 260.921875 129.347656 264.113281 Z M 129.347656 264.113281 " fill-opacity="0.9961" fill-rule="nonzero"/></g></g></g><g clip-path="url(#59a70247cf)"><g clip-path="url(#2b8d73713c)"><g clip-path="url(#08d98cee2e)"><path fill="#a6a6a6" d="M 25.738281 273.710938 C 23.605469 269.085938 25.613281 263.617188 30.226562 261.496094 C 34.835938 259.375 40.300781 261.40625 42.433594 266.035156 C 44.570312 270.664062 42.558594 276.132812 37.949219 278.253906 C 33.339844 280.375 27.871094 278.339844 25.738281 273.714844 L 25.738281 273.710938 M 28.328125 272.523438 C 29.800781 275.714844 33.570312 277.117188 36.75 275.652344 C 39.933594 274.191406 41.316406 270.417969 39.84375 267.226562 C 38.375 264.035156 34.605469 262.632812 31.421875 264.09375 C 28.242188 265.558594 26.855469 269.332031 28.328125 272.523438 Z M 28.328125 272.523438 " fill-opacity="0.9961" fill-rule="nonzero"/></g></g></g><g clip-path="url(#9be7fc75e9)"><g clip-path="url(#96c54156cf)"><g clip-path="url(#1614b39100)"><path fill="#a6a6a6" d="M 33.769531 375.0625 C 31.636719 370.433594 33.644531 364.964844 38.253906 362.84375 C 42.863281 360.722656 48.332031 362.757812 50.464844 367.382812 C 52.597656 372.011719 50.589844 377.480469 45.980469 379.601562 C 41.367188 381.722656 35.902344 379.6875 33.769531 375.0625 M 36.359375 373.871094 C 37.828125 377.0625 41.601562 378.464844 44.78125 377.003906 C 47.960938 375.539062 49.347656 371.765625 47.875 368.574219 C 46.402344 365.382812 42.632812 363.980469 39.453125 365.441406 C 36.273438 366.90625 34.886719 370.679688 36.359375 373.871094 Z M 36.359375 373.871094 " fill-opacity="0.9961" fill-rule="nonzero"/></g></g></g><g clip-path="url(#a04e890840)"><g clip-path="url(#caeaf663b6)"><g clip-path="url(#bc7940c77b)"><path fill="#a6a6a6" d="M 125.78125 262.226562 L 125.777344 262.226562 L 127.050781 262.910156 L 109.625 263.511719 L 110.847656 262.726562 L 99.265625 286.023438 C 99.023438 286.515625 98.515625 286.824219 97.960938 286.8125 L 72.882812 286.242188 L 74.007812 285.730469 L 56.246094 307.1875 L 56.570312 306.167969 L 58.625 332.609375 C 58.660156 333.09375 58.449219 333.566406 58.0625 333.855469 L 38.410156 348.683594 L 38.96875 347.371094 L 40.753906 362.167969 C 40.847656 362.949219 40.289062 363.660156 39.507812 363.753906 C 38.726562 363.84375 38.015625 363.28125 37.917969 362.5 L 36.132812 347.703125 C 36.074219 347.199219 36.285156 346.699219 36.691406 346.394531 L 56.339844 331.570312 L 55.777344 332.820312 L 53.722656 306.378906 C 53.695312 306.007812 53.8125 305.640625 54.046875 305.355469 L 71.808594 283.898438 C 72.085938 283.5625 72.5 283.375 72.9375 283.382812 L 98.015625 283.953125 L 96.710938 284.742188 L 108.292969 261.445312 C 108.523438 260.976562 108.996094 260.675781 109.515625 260.65625 L 126.941406 260.054688 C 127.457031 260.035156 127.941406 260.296875 128.210938 260.738281 L 128.210938 260.742188 C 128.625 261.414062 128.414062 262.292969 127.742188 262.707031 C 127.070312 263.117188 126.191406 262.902344 125.78125 262.226562 Z M 125.78125 262.226562 " fill-opacity="0.9961" fill-rule="nonzero"/></g></g></g><g clip-path="url(#eda51270d7)"><g clip-path="url(#7f51e48ac1)"><g clip-path="url(#ff3f54cddc)"><path fill="#a6a6a6" d="M 108.398438 261.789062 L 95.601562 240.796875 L 96.839844 241.484375 L 70.429688 241.765625 L 71.679688 240.988281 L 59.589844 264.707031 C 59.398438 265.082031 59.054688 265.351562 58.648438 265.445312 L 43.074219 269.070312 C 42.308594 269.246094 41.539062 268.769531 41.359375 268 C 41.175781 267.230469 41.652344 266.460938 42.417969 266.285156 L 57.992188 262.660156 L 57.046875 263.398438 L 69.136719 239.683594 C 69.375 239.210938 69.859375 238.910156 70.386719 238.90625 L 96.796875 238.625 C 97.304688 238.621094 97.773438 238.878906 98.035156 239.3125 L 110.832031 260.304688 L 110.832031 260.300781 L 110.832031 260.304688 C 111.242188 260.980469 111.03125 261.859375 110.359375 262.269531 C 109.6875 262.679688 108.8125 262.464844 108.398438 261.789062 Z M 108.398438 261.789062 " fill-opacity="0.9961" fill-rule="nonzero"/></g></g></g><g clip-path="url(#c8133fd8f2)"><g clip-path="url(#460f75a655)"><g clip-path="url(#ae146f7555)"><path fill="#a6a6a6" d="M 71.132812 284.257812 L 71.132812 284.253906 L 71.214844 284.375 L 57.441406 266.253906 C 56.964844 265.625 57.085938 264.726562 57.710938 264.25 C 58.335938 263.773438 59.234375 263.898438 59.710938 264.527344 L 73.484375 282.648438 L 73.566406 282.769531 C 73.980469 283.445312 73.769531 284.324219 73.097656 284.734375 C 72.425781 285.144531 71.546875 284.929688 71.132812 284.257812 Z M 71.132812 284.257812 " fill-opacity="0.9961" fill-rule="nonzero"/></g></g></g><g clip-path="url(#2e6144352f)"><g clip-path="url(#e8a1287858)"><g clip-path="url(#2ad554489f)"><path fill="#a6a6a6" d="M 53.464844 306.582031 L 53.464844 306.578125 L 54.113281 307.144531 L 30.78125 296.953125 C 30.210938 296.703125 29.867188 296.113281 29.929688 295.496094 L 31.585938 279 C 31.664062 278.214844 32.363281 277.644531 33.148438 277.726562 C 33.933594 277.808594 34.503906 278.511719 34.425781 279.296875 L 32.769531 295.792969 L 31.914062 294.332031 L 55.246094 304.527344 C 55.515625 304.644531 55.742188 304.84375 55.894531 305.09375 L 55.898438 305.09375 C 56.308594 305.769531 56.097656 306.648438 55.425781 307.058594 C 54.753906 307.46875 53.875 307.253906 53.464844 306.582031 Z M 53.464844 306.582031 " fill-opacity="0.9961" fill-rule="nonzero"/></g></g></g><g clip-path="url(#c9741721f7)"><g clip-path="url(#98cdaf6033)"><g clip-path="url(#8fede000c2)"><path fill="#4282aa" d="M 138.703125 204.15625 C 133.261719 203.269531 128.132812 206.964844 127.246094 212.40625 C 126.359375 217.847656 130.050781 222.980469 135.488281 223.863281 C 140.929688 224.75 146.058594 221.058594 146.945312 215.617188 C 147.832031 210.171875 144.140625 205.042969 138.703125 204.15625 M 138.203125 207.214844 C 141.957031 207.824219 144.503906 211.363281 143.890625 215.117188 C 143.277344 218.871094 139.742188 221.417969 135.988281 220.808594 C 132.234375 220.195312 129.691406 216.660156 130.300781 212.902344 C 130.914062 209.152344 134.449219 206.601562 138.203125 207.214844 Z M 138.203125 207.214844 " fill-opacity="0.9961" fill-rule="nonzero"/></g></g></g><g clip-path="url(#55a05315ab)"><g clip-path="url(#1cea42c91e)"><g clip-path="url(#a26f1570e2)"><path fill="#4282aa" d="M 118.449219 95.996094 C 113.011719 95.109375 107.882812 98.800781 106.996094 104.246094 C 106.109375 109.6875 109.796875 114.816406 115.238281 115.703125 C 120.679688 116.589844 125.808594 112.894531 126.695312 107.453125 C 127.582031 102.011719 123.890625 96.882812 118.449219 95.996094 M 117.953125 99.050781 C 121.707031 99.664062 124.25 103.203125 123.640625 106.957031 C 123.027344 110.710938 119.488281 113.257812 115.738281 112.644531 C 111.984375 112.035156 109.4375 108.496094 110.050781 104.742188 C 110.664062 100.988281 114.199219 98.441406 117.953125 99.050781 Z M 117.953125 99.050781 " fill-opacity="0.9961" fill-rule="nonzero"/></g></g></g><g clip-path="url(#c602c1e3ff)"><g clip-path="url(#ba9698f213)"><g clip-path="url(#c584f06a35)"><path fill="#4282aa" d="M 226.480469 74.917969 C 221.039062 74.03125 215.910156 77.726562 215.023438 83.167969 C 214.136719 88.609375 217.828125 93.738281 223.269531 94.625 C 228.707031 95.511719 233.839844 91.816406 234.726562 86.375 C 235.613281 80.933594 231.921875 75.804688 226.480469 74.917969 M 225.984375 77.972656 C 229.734375 78.585938 232.28125 82.125 231.667969 85.878906 C 231.058594 89.632812 227.519531 92.179688 223.765625 91.566406 C 220.015625 90.957031 217.46875 87.417969 218.082031 83.664062 C 218.691406 79.910156 222.230469 77.363281 225.984375 77.972656 Z M 225.984375 77.972656 " fill-opacity="0.9961" fill-rule="nonzero"/></g></g></g><g clip-path="url(#47e3a1a9c5)"><g clip-path="url(#5c14b865a2)"><g clip-path="url(#ee0f7a7704)"><path fill="#4282aa" d="M 135.207031 204.03125 L 135.207031 204.027344 L 136.285156 205.160156 L 131.910156 186.75 L 131.441406 188.257812 L 152.417969 169.363281 C 152.859375 168.960938 153.035156 168.339844 152.863281 167.765625 L 145.066406 141.6875 L 144.851562 143.015625 L 162.132812 118.183594 L 161.164062 118.820312 L 189.335938 113.277344 C 189.851562 113.175781 190.285156 112.816406 190.476562 112.328125 L 200.296875 87.449219 L 199.089844 88.414062 L 215.035156 85.976562 C 215.878906 85.847656 216.460938 85.058594 216.332031 84.214844 C 216.203125 83.367188 215.414062 82.785156 214.570312 82.917969 L 198.625 85.351562 C 198.078125 85.433594 197.621094 85.800781 197.417969 86.3125 L 187.597656 111.191406 L 188.738281 110.238281 L 160.566406 115.78125 C 160.171875 115.859375 159.824219 116.085938 159.59375 116.414062 L 142.3125 141.246094 C 142.042969 141.632812 141.964844 142.121094 142.097656 142.574219 L 149.898438 168.65625 L 150.34375 167.0625 L 129.367188 185.957031 C 128.945312 186.335938 128.765625 186.914062 128.898438 187.464844 L 133.273438 205.875 C 133.402344 206.421875 133.816406 206.851562 134.355469 207.007812 C 135.179688 207.242188 136.035156 206.765625 136.269531 205.945312 C 136.507812 205.121094 136.03125 204.265625 135.207031 204.03125 Z M 135.207031 204.03125 " fill-opacity="0.9961" fill-rule="nonzero"/></g></g></g><g clip-path="url(#4b2d5b7c63)"><g clip-path="url(#a33a47c476)"><g clip-path="url(#c72d04ad13)"><path fill="#4282aa" d="M 129.761719 185.96875 L 129.757812 185.96875 L 129.757812 185.964844 L 104.183594 178.683594 L 105.257812 179.777344 L 97.960938 152.054688 L 97.511719 153.589844 L 118.78125 134.042969 C 119.117188 133.734375 119.300781 133.292969 119.28125 132.839844 L 118.585938 115.488281 C 118.554688 114.632812 117.832031 113.96875 116.980469 114.003906 C 116.125 114.039062 115.460938 114.757812 115.492188 115.613281 L 116.1875 132.964844 L 116.6875 131.761719 L 95.417969 151.3125 C 94.996094 151.699219 94.824219 152.289062 94.96875 152.84375 L 102.261719 180.566406 C 102.402344 181.097656 102.808594 181.511719 103.335938 181.660156 L 128.90625 188.945312 L 128.910156 188.945312 C 129.730469 189.179688 130.589844 188.703125 130.824219 187.882812 C 131.058594 187.058594 130.582031 186.203125 129.761719 185.96875 Z M 129.761719 185.96875 " fill-opacity="0.9961" fill-rule="nonzero"/></g></g></g><g clip-path="url(#b06341e028)"><g clip-path="url(#818ba7c434)"><g clip-path="url(#ef52863fac)"><path fill="#4282aa" d="M 142.488281 140.433594 L 142.636719 140.484375 L 119.777344 131.34375 C 118.984375 131.027344 118.082031 131.414062 117.765625 132.207031 C 117.449219 133 117.832031 133.902344 118.628906 134.21875 L 141.488281 143.363281 L 141.636719 143.414062 L 141.640625 143.414062 C 142.460938 143.648438 143.316406 143.171875 143.554688 142.351562 C 143.789062 141.527344 143.3125 140.671875 142.488281 140.433594 Z M 142.488281 140.433594 " fill-opacity="0.9961" fill-rule="nonzero"/></g></g></g><g clip-path="url(#88459c3514)"><g clip-path="url(#2349c03b94)"><g clip-path="url(#e16ed30a6f)"><path fill="#4282aa" d="M 160.703125 115.449219 L 160.699219 115.449219 L 161.480469 115.964844 L 144.144531 94.515625 C 143.71875 93.988281 143.003906 93.800781 142.375 94.046875 L 125.648438 100.578125 C 124.851562 100.886719 124.457031 101.785156 124.769531 102.582031 C 125.078125 103.378906 125.976562 103.773438 126.773438 103.460938 L 143.5 96.929688 L 141.734375 96.460938 L 159.070312 117.910156 C 159.269531 118.160156 159.542969 118.339844 159.847656 118.425781 L 159.851562 118.429688 C 160.671875 118.664062 161.53125 118.1875 161.765625 117.363281 C 162 116.542969 161.523438 115.683594 160.703125 115.449219 Z M 160.703125 115.449219 " fill-opacity="0.9961" fill-rule="nonzero"/></g></g></g><g clip-path="url(#f9231cea2e)"><g clip-path="url(#02f52e2108)"><g clip-path="url(#a98eebbe53)"><path fill="#91b3bd" d="M 152.554688 57.277344 C 149.949219 51.191406 152.769531 44.148438 158.847656 41.550781 C 164.929688 38.953125 171.96875 41.78125 174.570312 47.871094 C 177.175781 53.957031 174.359375 61 168.277344 63.597656 C 162.195312 66.195312 155.15625 63.367188 152.554688 57.277344 M 155.96875 55.820312 C 157.765625 60.019531 162.621094 61.96875 166.8125 60.179688 C 171.007812 58.386719 172.953125 53.527344 171.15625 49.328125 C 169.359375 45.128906 164.503906 43.179688 160.3125 44.96875 C 156.117188 46.761719 154.171875 51.617188 155.96875 55.820312 Z M 155.96875 55.820312 " fill-opacity="0.9961" fill-rule="nonzero"/></g></g></g><g clip-path="url(#960c0f25e2)"><g clip-path="url(#5272c99f7d)"><g clip-path="url(#246abba61c)"><path fill="#91b3bd" d="M 20.765625 64.742188 C 18.160156 58.65625 20.980469 51.617188 27.058594 49.015625 C 33.140625 46.417969 40.179688 49.25 42.78125 55.335938 C 45.386719 61.425781 42.566406 68.464844 36.488281 71.0625 C 30.40625 73.660156 23.367188 70.832031 20.765625 64.746094 L 20.765625 64.742188 M 24.179688 63.285156 C 25.976562 67.484375 30.832031 69.4375 35.023438 67.644531 C 39.21875 65.851562 41.164062 60.996094 39.367188 56.796875 C 37.570312 52.597656 32.714844 50.644531 28.523438 52.4375 C 24.328125 54.230469 22.382812 59.085938 24.179688 63.285156 Z M 24.179688 63.285156 " fill-opacity="0.9961" fill-rule="nonzero"/></g></g></g><g clip-path="url(#c1e731b72d)"><g clip-path="url(#2c2fc13c47)"><g clip-path="url(#6d8fa218dd)"><path fill="#91b3bd" d="M 27.433594 196.753906 C 24.828125 190.664062 27.648438 183.625 33.726562 181.027344 C 39.808594 178.429688 46.847656 181.257812 49.453125 187.347656 L 49.449219 187.347656 C 52.054688 193.433594 49.238281 200.476562 43.15625 203.074219 C 37.078125 205.671875 30.035156 202.839844 27.433594 196.753906 M 30.847656 195.292969 C 32.644531 199.492188 37.5 201.445312 41.695312 199.652344 C 45.886719 197.863281 47.832031 193.003906 46.035156 188.804688 C 44.238281 184.605469 39.382812 182.65625 35.191406 184.445312 C 30.996094 186.238281 29.050781 191.09375 30.847656 195.292969 Z M 30.847656 195.292969 " fill-opacity="0.9961" fill-rule="nonzero"/></g></g></g><g clip-path="url(#b145099b38)"><g clip-path="url(#ebd00daf3f)"><g clip-path="url(#44be396b2e)"><path fill="#91b3bd" d="M 151.394531 53.242188 L 151.394531 53.238281 L 153.023438 54.171875 L 130.324219 54.359375 L 131.945312 53.378906 L 116.003906 83.265625 C 115.664062 83.898438 114.992188 84.28125 114.273438 84.246094 L 81.652344 82.644531 L 83.136719 82.015625 L 59.222656 109.300781 L 59.679688 107.984375 L 61.367188 142.421875 C 61.398438 143.054688 61.105469 143.660156 60.589844 144.027344 L 34.460938 162.625 L 35.234375 160.941406 L 37.003906 180.230469 C 37.097656 181.253906 36.347656 182.15625 35.324219 182.25 C 34.304688 182.34375 33.398438 181.589844 33.304688 180.566406 L 31.535156 161.277344 C 31.472656 160.617188 31.765625 159.976562 32.304688 159.59375 L 58.433594 140.996094 L 57.65625 142.601562 L 55.96875 108.160156 C 55.945312 107.679688 56.109375 107.207031 56.425781 106.84375 L 80.34375 79.5625 C 80.71875 79.136719 81.265625 78.90625 81.828125 78.933594 L 114.453125 80.53125 L 112.722656 81.511719 L 128.664062 51.625 C 128.984375 51.023438 129.609375 50.648438 130.289062 50.644531 L 152.988281 50.457031 C 153.65625 50.449219 154.28125 50.808594 154.617188 51.390625 L 154.617188 51.394531 C 155.128906 52.285156 154.820312 53.421875 153.929688 53.929688 C 153.042969 54.441406 151.90625 54.132812 151.394531 53.242188 Z M 151.394531 53.242188 " fill-opacity="0.9961" fill-rule="nonzero"/></g></g></g><g clip-path="url(#50db287019)"><g clip-path="url(#9a97ff6369)"><g clip-path="url(#3ff454ce68)"><path fill="#91b3bd" d="M 128.789062 52.078125 L 128.789062 52.074219 L 112.917969 24.351562 L 114.503906 25.289062 L 80.121094 24.75 L 81.777344 23.785156 L 65.160156 54.199219 C 64.898438 54.675781 64.4375 55.015625 63.902344 55.125 L 43.5 59.300781 C 42.496094 59.507812 41.511719 58.859375 41.308594 57.851562 C 41.101562 56.847656 41.746094 55.867188 42.75 55.660156 L 63.152344 51.484375 L 61.898438 52.410156 L 78.515625 21.996094 C 78.847656 21.390625 79.484375 21.019531 80.171875 21.03125 L 114.558594 21.570312 C 115.214844 21.582031 115.816406 21.9375 116.140625 22.507812 L 132.011719 50.230469 L 132.011719 50.226562 L 132.011719 50.230469 C 132.523438 51.121094 132.214844 52.257812 131.328125 52.769531 C 130.4375 53.277344 129.300781 52.96875 128.789062 52.078125 Z M 128.789062 52.078125 " fill-opacity="0.9961" fill-rule="nonzero"/></g></g></g><g clip-path="url(#92098933f5)"><g clip-path="url(#7af9197284)"><g clip-path="url(#e47f42758d)"><path fill="#91b3bd" d="M 79.453125 80.003906 L 79.453125 80 L 79.554688 80.160156 L 62.304688 56.132812 C 61.707031 55.300781 61.894531 54.136719 62.730469 53.539062 C 63.5625 52.941406 64.722656 53.132812 65.320312 53.96875 L 82.570312 77.992188 L 82.671875 78.152344 L 82.675781 78.15625 C 83.183594 79.046875 82.878906 80.183594 81.988281 80.691406 C 81.097656 81.203125 79.964844 80.894531 79.453125 80.003906 Z M 79.453125 80.003906 " fill-opacity="0.9961" fill-rule="nonzero"/></g></g></g><g clip-path="url(#0721293ab3)"><g clip-path="url(#e78162aa41)"><g clip-path="url(#803f32f741)"><path fill="#91b3bd" d="M 55.625 108.417969 L 55.621094 108.414062 L 56.445312 109.171875 L 26.460938 95.125 C 25.730469 94.78125 25.300781 94.003906 25.40625 93.199219 L 28.175781 71.820312 C 28.308594 70.800781 29.242188 70.082031 30.257812 70.21875 C 31.273438 70.351562 31.992188 71.285156 31.859375 72.300781 L 29.089844 93.683594 L 28.035156 91.757812 L 58.019531 105.804688 C 58.363281 105.96875 58.652344 106.234375 58.84375 106.566406 L 58.84375 106.570312 C 59.355469 107.460938 59.046875 108.59375 58.160156 109.105469 C 57.269531 109.617188 56.132812 109.308594 55.625 108.417969 Z M 55.625 108.417969 " fill-opacity="0.9961" fill-rule="nonzero"/></g></g></g><g clip-path="url(#d96396a525)"><g clip-path="url(#b30e1e505d)"><g clip-path="url(#eec6179359)"><path fill="#4282aa" d="M 106.296875 384.527344 C 105.59375 389.574219 100.949219 393.09375 95.925781 392.390625 C 90.898438 391.6875 87.394531 387.023438 88.09375 381.976562 C 88.796875 376.929688 93.441406 373.410156 98.46875 374.113281 C 103.492188 374.816406 106.996094 379.480469 106.296875 384.527344 M 103.472656 384.132812 C 103.957031 380.648438 101.539062 377.433594 98.074219 376.949219 C 94.605469 376.464844 91.402344 378.890625 90.917969 382.371094 C 90.433594 385.855469 92.851562 389.070312 96.320312 389.554688 C 99.785156 390.042969 102.988281 387.613281 103.472656 384.132812 Z M 103.472656 384.132812 " fill-opacity="0.9961" fill-rule="nonzero"/></g></g></g><g clip-path="url(#1ba75d93f8)"><g clip-path="url(#339352d328)"><g clip-path="url(#4d1b82af0a)"><path fill="#4282aa" d="M 195.875 431.976562 C 195.171875 437.023438 190.53125 440.542969 185.503906 439.839844 C 180.476562 439.136719 176.972656 434.472656 177.675781 429.425781 C 178.375 424.378906 183.019531 420.859375 188.046875 421.5625 C 193.070312 422.265625 196.574219 426.929688 195.875 431.976562 M 193.050781 431.578125 L 193.050781 431.582031 C 193.535156 428.097656 191.117188 424.882812 187.652344 424.398438 C 184.183594 423.910156 180.980469 426.339844 180.496094 429.820312 C 180.011719 433.304688 182.429688 436.519531 185.898438 437.003906 C 189.363281 437.488281 192.566406 435.0625 193.050781 431.578125 Z M 193.050781 431.578125 " fill-opacity="0.9961" fill-rule="nonzero"/></g></g></g><g clip-path="url(#567c4af301)"><g clip-path="url(#db5017e463)"><g clip-path="url(#577a172def)"><path fill="#4282aa" d="M 243.816406 342.324219 C 243.117188 347.371094 238.472656 350.890625 233.445312 350.1875 C 228.421875 349.484375 224.914062 344.820312 225.617188 339.773438 C 226.320312 334.726562 230.960938 331.207031 235.988281 331.910156 C 241.015625 332.613281 244.519531 337.277344 243.816406 342.324219 M 240.996094 341.929688 C 241.480469 338.445312 239.0625 335.230469 235.59375 334.746094 C 232.128906 334.261719 228.925781 336.6875 228.441406 340.167969 C 227.957031 343.652344 230.375 346.867188 233.839844 347.351562 C 237.308594 347.839844 240.511719 345.410156 240.996094 341.929688 Z M 240.996094 341.929688 " fill-opacity="0.9961" fill-rule="nonzero"/></g></g></g><g clip-path="url(#1dcf9d99f0)"><g clip-path="url(#8bc43db944)"><g clip-path="url(#589da17606)"><path fill="#4282aa" d="M 105.457031 387.648438 L 104.757812 386.386719 L 119.75 395.285156 L 118.296875 395.285156 L 140.621094 381.925781 C 141.09375 381.640625 141.6875 381.65625 142.144531 381.964844 L 162.953125 395.980469 L 161.726562 395.804688 L 188.257812 387.328125 L 187.4375 388.015625 L 199.980469 364.644531 C 200.210938 364.214844 200.640625 363.933594 201.125 363.898438 L 225.671875 362.023438 L 224.496094 362.828125 L 230.976562 349.410156 C 231.320312 348.699219 232.175781 348.402344 232.882812 348.746094 C 233.589844 349.089844 233.886719 349.949219 233.542969 350.660156 L 227.058594 364.074219 C 226.839844 364.535156 226.390625 364.839844 225.886719 364.878906 L 201.339844 366.75 L 202.488281 366.003906 L 189.945312 389.371094 C 189.769531 389.699219 189.476562 389.945312 189.125 390.058594 L 162.589844 398.535156 C 162.175781 398.667969 161.722656 398.601562 161.363281 398.359375 L 140.554688 384.34375 L 142.078125 384.382812 L 119.753906 397.746094 C 119.308594 398.011719 118.75 398.015625 118.300781 397.746094 L 103.308594 388.851562 C 102.863281 388.585938 102.597656 388.105469 102.609375 387.585938 C 102.625 386.796875 103.277344 386.167969 104.0625 386.1875 C 104.851562 386.203125 105.476562 386.855469 105.457031 387.648438 Z M 105.457031 387.648438 " fill-opacity="0.9961" fill-rule="nonzero"/></g></g></g><g clip-path="url(#6df201add7)"><g clip-path="url(#cef8e8c424)"><g clip-path="url(#596ec4f514)"><path fill="#4282aa" d="M 119.855469 397.394531 L 119.855469 397.398438 L 119.292969 421.976562 L 118.625 420.730469 L 141.011719 434.75 L 139.539062 434.726562 L 162.515625 421.285156 C 162.878906 421.074219 163.3125 421.03125 163.707031 421.171875 L 178.773438 426.527344 C 179.515625 426.789062 179.902344 427.609375 179.640625 428.355469 C 179.378906 429.097656 178.5625 429.488281 177.824219 429.226562 L 162.757812 423.871094 L 163.949219 423.757812 L 140.972656 437.199219 C 140.515625 437.464844 139.949219 437.457031 139.5 437.175781 L 117.117188 423.160156 C 116.6875 422.890625 116.433594 422.417969 116.445312 421.910156 L 117.003906 397.335938 L 117.003906 397.332031 C 117.019531 396.542969 117.671875 395.917969 118.460938 395.933594 C 119.246094 395.953125 119.871094 396.605469 119.855469 397.394531 Z M 119.855469 397.394531 " fill-opacity="0.9961" fill-rule="nonzero"/></g></g></g><g clip-path="url(#55e7441594)"><g clip-path="url(#c556c9cba0)"><g clip-path="url(#d5438724d8)"><path fill="#4282aa" d="M 163.351562 398.597656 L 163.351562 398.601562 L 163.34375 398.453125 L 165.160156 421.144531 C 165.222656 421.929688 164.636719 422.621094 163.851562 422.683594 C 163.066406 422.746094 162.378906 422.160156 162.316406 421.371094 L 160.503906 398.683594 L 160.5 398.539062 L 160.5 398.535156 C 160.515625 397.746094 161.167969 397.117188 161.957031 397.136719 C 162.742188 397.152344 163.367188 397.808594 163.351562 398.597656 Z M 163.351562 398.597656 " fill-opacity="0.9961" fill-rule="nonzero"/></g></g></g><g clip-path="url(#0b7d331a8a)"><g clip-path="url(#5b147a96ca)"><g clip-path="url(#e2f88732e5)"><path fill="#4282aa" d="M 190.273438 389.339844 L 190.273438 389.34375 L 190.035156 388.515625 L 204.171875 409.6875 C 204.519531 410.207031 204.488281 410.890625 204.101562 411.378906 L 193.808594 424.367188 C 193.316406 424.984375 192.417969 425.089844 191.804688 424.597656 C 191.1875 424.105469 191.085938 423.203125 191.578125 422.585938 L 201.875 409.59375 L 201.804688 411.285156 L 187.664062 390.109375 C 187.503906 389.863281 187.417969 389.574219 187.425781 389.28125 L 187.425781 389.277344 C 187.441406 388.488281 188.09375 387.863281 188.878906 387.878906 C 189.667969 387.894531 190.292969 388.550781 190.273438 389.339844 Z M 190.273438 389.339844 " fill-opacity="0.9961" fill-rule="nonzero"/></g></g></g><g clip-path="url(#911d7dc622)"><path fill="#e8e9e3" d="M 213.359375 479.972656 C 214.132812 486.550781 220.078125 491.257812 226.644531 490.484375 C 233.214844 489.710938 237.910156 483.753906 237.140625 477.179688 C 236.371094 470.601562 230.421875 465.898438 223.855469 466.667969 C 217.289062 467.441406 212.589844 473.398438 213.359375 479.976562 L 213.359375 479.972656 M 217.050781 479.539062 C 216.519531 475.003906 219.757812 470.894531 224.289062 470.363281 C 228.816406 469.832031 232.921875 473.078125 233.453125 477.613281 C 233.984375 482.148438 230.742188 486.257812 226.214844 486.789062 C 221.683594 487.324219 217.582031 484.078125 217.050781 479.539062 Z M 217.050781 479.539062 " fill-opacity="0.9961" fill-rule="nonzero"/></g><path fill="#e8e9e3" d="M 95.328125 539.074219 C 96.101562 545.652344 102.046875 550.355469 108.617188 549.585938 C 115.183594 548.8125 119.878906 542.855469 119.109375 536.277344 L 119.109375 536.28125 C 118.339844 529.703125 112.390625 524.996094 105.824219 525.769531 C 99.257812 526.542969 94.558594 532.5 95.328125 539.074219 M 99.019531 538.640625 C 98.484375 534.105469 101.726562 529.996094 106.257812 529.464844 C 110.785156 528.929688 114.890625 532.175781 115.421875 536.714844 C 115.953125 541.25 112.710938 545.359375 108.183594 545.890625 C 103.652344 546.421875 99.550781 543.175781 99.019531 538.640625 Z M 99.019531 538.640625 " fill-opacity="0.9961" fill-rule="nonzero"/><g clip-path="url(#b850a780dc)"><path fill="#e8e9e3" d="M 35.429688 421.25 C 36.199219 427.824219 42.148438 432.53125 48.714844 431.757812 C 55.28125 430.988281 59.980469 425.03125 59.207031 418.453125 C 58.4375 411.878906 52.488281 407.171875 45.921875 407.945312 C 39.355469 408.714844 34.65625 414.671875 35.429688 421.25 M 39.117188 420.816406 C 38.585938 416.28125 41.824219 412.171875 46.355469 411.636719 C 50.882812 411.105469 54.988281 414.351562 55.519531 418.886719 C 56.050781 423.421875 52.808594 427.53125 48.28125 428.066406 C 43.75 428.597656 39.648438 425.351562 39.117188 420.816406 Z M 39.117188 420.816406 " fill-opacity="0.9961" fill-rule="nonzero"/></g><path fill="#e8e9e3" d="M 214.363281 484.050781 L 214.363281 484.054688 L 215.3125 482.433594 L 195.527344 493.566406 L 197.421875 493.613281 L 168.722656 475.621094 C 168.117188 475.238281 167.34375 475.242188 166.738281 475.628906 L 139.238281 493.25 L 140.839844 493.054688 L 106.519531 481.292969 L 107.570312 482.203125 L 91.894531 451.492188 C 91.609375 450.925781 91.054688 450.546875 90.421875 450.488281 L 58.507812 447.359375 L 60.015625 448.433594 L 51.949219 430.820312 C 51.523438 429.886719 50.421875 429.476562 49.488281 429.902344 C 48.558594 430.332031 48.148438 431.4375 48.574219 432.371094 L 56.636719 449.984375 C 56.914062 450.585938 57.488281 450.996094 58.144531 451.058594 L 90.0625 454.1875 L 88.589844 453.183594 L 104.261719 483.898438 C 104.480469 484.328125 104.859375 484.652344 105.316406 484.808594 L 139.636719 496.574219 C 140.171875 496.757812 140.761719 496.6875 141.238281 496.382812 L 168.738281 478.765625 L 166.753906 478.773438 L 195.453125 496.765625 C 196.027344 497.125 196.757812 497.144531 197.347656 496.808594 L 217.128906 485.675781 C 217.714844 485.347656 218.078125 484.726562 218.078125 484.054688 L 218.078125 484.050781 C 218.078125 483.023438 217.246094 482.191406 216.222656 482.191406 C 215.195312 482.191406 214.363281 483.023438 214.363281 484.050781 Z M 214.363281 484.050781 " fill-opacity="0.9961" fill-rule="nonzero"/><path fill="#e8e9e3" d="M 195.335938 496.308594 L 195.335938 496.3125 L 195.363281 528.257812 L 196.273438 526.65625 L 166.714844 544.234375 L 168.632812 544.246094 L 139.085938 526.132812 C 138.621094 525.847656 138.050781 525.78125 137.535156 525.953125 L 117.757812 532.480469 C 116.785156 532.804688 116.257812 533.855469 116.578125 534.832031 C 116.898438 535.804688 117.949219 536.335938 118.921875 536.015625 L 138.695312 529.484375 L 137.144531 529.304688 L 166.695312 547.417969 C 167.28125 547.777344 168.019531 547.785156 168.613281 547.429688 L 198.167969 529.855469 C 198.734375 529.519531 199.078125 528.910156 199.078125 528.253906 L 199.050781 496.308594 L 199.050781 496.3125 L 199.050781 496.308594 C 199.050781 495.28125 198.21875 494.449219 197.191406 494.449219 C 196.167969 494.449219 195.335938 495.28125 195.335938 496.308594 Z M 195.335938 496.308594 " fill-opacity="0.9961" fill-rule="nonzero"/><path fill="#e8e9e3" d="M 138.644531 496.636719 L 138.644531 496.640625 L 138.652344 496.449219 L 135.648438 525.875 C 135.542969 526.894531 136.285156 527.808594 137.304688 527.914062 C 138.324219 528.015625 139.238281 527.273438 139.339844 526.25 L 142.347656 496.828125 L 142.359375 496.640625 L 142.359375 496.636719 C 142.359375 495.609375 141.527344 494.777344 140.5 494.777344 C 139.476562 494.777344 138.644531 495.609375 138.644531 496.636719 Z M 138.644531 496.636719 " fill-opacity="0.9961" fill-rule="nonzero"/><path fill="#e8e9e3" d="M 103.835938 483.847656 L 103.835938 483.851562 L 104.171875 482.78125 L 85.15625 509.886719 C 84.691406 510.550781 84.707031 511.4375 85.195312 512.082031 L 98.238281 529.25 C 98.859375 530.066406 100.023438 530.226562 100.839844 529.605469 C 101.65625 528.980469 101.816406 527.816406 101.195312 526.996094 L 88.152344 509.832031 L 88.195312 512.027344 L 107.210938 484.921875 C 107.429688 484.605469 107.550781 484.234375 107.550781 483.851562 L 107.550781 483.847656 C 107.550781 482.820312 106.71875 481.988281 105.691406 481.988281 C 104.667969 481.988281 103.835938 482.820312 103.835938 483.847656 Z M 103.835938 483.847656 " fill-opacity="0.9961" fill-rule="nonzero"/></svg>